<svg width="164" height="60" viewBox="0 0 164 60" fill="none" xmlns="http://www.w3.org/2000/svg">
<path d="M29.5193 27.5C32.9635 27.5 34.6856 27.5 36.0011 28.1812C37.1583 28.7804 38.0992 29.7366 38.6888 30.9126C39.3591 32.2495 39.3591 33.9997 39.3591 37.5C39.3591 41.0003 39.3591 42.7505 38.6888 44.0874C38.0992 45.2634 37.1583 46.2196 36.0011 46.8188C34.6856 47.5 32.9635 47.5 29.5193 47.5H25.8294C22.486 47.5 19.7657 50.2114 19.6815 53.5886L19.6776 53.9114C19.5934 57.2886 16.8731 60 13.5297 60H9.83976C6.39557 60 4.67343 60 3.35792 59.3188C2.20075 58.7196 1.25984 57.7634 0.670238 56.5874C-2.92075e-05 55.2505 0 53.5003 0 50C0 46.4997 -2.92075e-05 44.7495 0.670238 43.4126C1.25984 42.2366 2.20075 41.2804 3.35792 40.6812C4.67343 40 6.39557 40 9.83976 40H13.5297C16.8731 40 19.5934 37.2886 19.6776 33.9114L19.6815 33.5886C19.7657 30.2114 22.486 27.5 25.8294 27.5H29.5193Z" fill="white"/>
<path d="M117.641 38.53C117.641 40.62 118.165 42.2517 119.211 43.425C120.257 44.5617 121.7 45.1299 123.54 45.1299C125.416 45.1299 126.878 44.5617 127.924 43.425C129.006 42.2517 129.547 40.62 129.547 38.53V19.5H135.392V38.53C135.392 42.16 134.31 45.0384 132.145 47.165C130.017 49.255 127.148 50.3 123.54 50.3C119.968 50.3 117.118 49.255 114.99 47.165C112.861 45.0384 111.796 42.16 111.796 38.53V19.5H117.641V38.53Z" fill="white"/>
<path d="M80.2875 15.0449H62.1037V27.0349H78.8805V32.5349H62.212V49.75H56.4213V9.54492H80.2875V15.0449Z" fill="white"/>
<path d="M97.4761 40.5649C97.4761 41.7383 97.8008 42.6735 98.4503 43.3701C99.0997 44.0301 99.9837 44.3601 101.102 44.3601H110.302V49.75H100.832C98.9916 49.75 97.3861 49.3832 96.0151 48.6499C94.6441 47.8799 93.5616 46.7983 92.7679 45.405C92.0102 44.0117 91.6314 42.3983 91.6314 40.5649V14.99H81.8901V9.6001H97.4761V40.5649Z" fill="white"/>
<path d="M148.793 27.8601C149.045 28.3001 149.298 28.7767 149.55 29.29C149.803 29.7667 150.001 30.17 150.146 30.5C150.254 30.17 150.434 29.7667 150.687 29.29C150.939 28.7767 151.192 28.3001 151.444 27.8601L156.694 19.5H163.404L153.609 34.1851L164 49.75H157.289L151.499 40.675C151.246 40.235 150.993 39.7399 150.741 39.1899C150.488 38.64 150.29 38.2001 150.146 37.8701C150.001 38.2001 149.785 38.64 149.496 39.1899C149.244 39.7399 148.973 40.235 148.684 40.675L142.839 49.75H136.183L146.628 34.1299L136.832 19.5H143.543L148.793 27.8601Z" fill="white"/>
<path d="M29.5193 0C32.9635 0 34.6856 -2.96831e-05 36.0011 0.681152C37.1583 1.28036 38.0992 2.23658 38.6888 3.4126C39.3591 4.74954 39.3591 6.49972 39.3591 10C39.3591 13.5003 39.3591 15.2505 38.6888 16.5874C38.0992 17.7634 37.1583 18.7196 36.0011 19.3188C34.6856 20 32.9635 20 29.5193 20H9.83976C6.39557 20 4.67343 20 3.35792 19.3188C2.20075 18.7196 1.25984 17.7634 0.670238 16.5874C-2.92075e-05 15.2505 0 13.5003 0 10C0 6.49972 -2.92075e-05 4.74954 0.670238 3.4126C1.25984 2.23658 2.20075 1.28036 3.35792 0.681152C4.67343 -2.96831e-05 6.39557 0 9.83976 0H29.5193Z" fill="white"/>
</svg>
