<svg width="298" height="111" viewBox="0 0 298 111" fill="none" xmlns="http://www.w3.org/2000/svg">
<path d="M75.5756 0.5C80.327 0.5 82.7028 0.499918 84.8465 1.81944C86.4578 2.81116 88.2051 5.0935 88.7493 6.9167C89.4734 9.34241 89.0053 11.1527 88.0685 14.773C81.8039 38.9843 59.9782 56.8525 34.0159 56.8525H17.6446C37.3707 63.2633 52.3074 80.4382 55.6541 101.519C56.4347 106.436 52.3583 110.5 47.4222 110.5H9.43757C4.50149 110.5 0.5 106.463 0.5 101.484V36.5656C0.5 23.9416 0.499894 17.6295 2.93514 12.8077C5.07732 8.56637 8.49585 5.11769 12.7001 2.95662C17.4797 0.499893 23.7367 0.5 36.2503 0.5H75.5756Z" fill="white"/>
<path d="M196.039 76.4719C196.039 80.6266 196.84 83.8197 198.441 86.051C200.043 88.2053 202.598 89.2824 206.106 89.2824C207.555 89.2824 208.966 89.0904 210.339 88.7057C211.788 88.321 213.046 87.7439 214.114 86.9746C215.182 86.1283 216.059 85.1279 216.745 83.9738C217.432 82.7429 217.775 81.3195 217.775 79.7038V39.8873H232.418V100.131H217.775V90.0903H217.203C216.669 91.6291 215.944 93.0912 215.029 94.4761C214.19 95.784 213.084 96.9765 211.712 98.0536C210.415 99.1307 208.813 99.9775 206.907 100.593C205.076 101.208 202.941 101.516 200.5 101.516C194.323 101.516 189.594 99.4771 186.315 95.3993C183.035 91.3215 181.395 85.5124 181.395 77.9723V39.8873H196.039V76.4719Z" fill="white"/>
<path d="M145.181 26.4996H132.941V39.8873H145.181V51.5434H132.941V100.131H118.297V51.5434H109.488V39.8873H118.297V31.2315C118.297 25.9226 119.67 21.8449 122.416 18.9981C125.238 16.1514 129.356 14.7277 134.771 14.7277H145.181V26.4996Z" fill="white"/>
<path d="M166.53 88.3592H174.423V100.131H166.53C161.496 100.131 157.797 98.8615 155.433 96.3225C153.069 93.7835 151.886 90.2059 151.886 85.5896V14.7277H166.53V88.3592Z" fill="white"/>
<path d="M269.128 59.8532H269.586L281.827 39.8873H297.386L277.136 69.7783L297.5 100.131H280.797L268.213 79.3573H267.756L255.171 100.131H239.613L259.976 69.5476L240.07 39.8873H256.773L269.128 59.8532Z" fill="white"/>
<path d="M72.0005 56.8525C81.8727 56.8525 89.8757 64.926 89.8757 74.8852C89.8757 84.8445 81.8727 92.918 72.0005 92.918C62.1284 92.918 54.1254 84.8445 54.1254 74.8852C54.1254 64.926 62.1284 56.8525 72.0005 56.8525Z" fill="white"/>
</svg>
